<svg xmlns="http://www.w3.org/2000/svg" viewBox="0 0 576 512" width="20" height="20" fill="currentColor">
  <path d="M572.52 241.4C518.7 135.5 410.7 64 288 64S57.31 135.5 3.48 241.4a48.07 48.07 0 0 0 0 45.2C57.31 376.5 165.3 448 288 448s230.7-71.5 284.52-161.4a48.07 48.07 0 0 0 0-45.2zM288 400c-97.2 0-189.6-57.6-238.8-144C98.4 169.6 190.8 112 288 112s189.6 57.6 238.8 144C477.6 342.4 385.2 400 288 400zm0-272a128 128 0 1 0 128 128A128 128 0 0 0 288 128zm0 208a80 80 0 1 1 80-80a80 80 0 0 1-80 80z"/>
</svg>
